<?xml version="1.0" standalone="no"?>
<!DOCTYPE svg PUBLIC "-//W3C//DTD SVG 20010904//EN"
 "http://www.w3.org/TR/2001/REC-SVG-20010904/DTD/svg10.dtd">
<svg version="1.0" xmlns="http://www.w3.org/2000/svg"
 width="96.000000pt" height="96.000000pt" viewBox="0 0 96.000000 96.000000"
 preserveAspectRatio="xMidYMid meet">
<metadata>
Created by potrace 1.10, written by Peter Selinger 2001-2011
</metadata>
<g transform="translate(0.000000,96.000000) scale(0.100000,-0.100000)"
fill="#20124d" stroke="none">
<path d="M40 947 c0 -8 -9 -22 -20 -32 -19 -18 -20 -31 -20 -445 l0 -427 23
-21 c23 -22 26 -22 449 -22 412 0 425 1 443 20 10 11 24 20 32 20 11 0 13 76
13 428 l0 427 -22 10 c-13 6 -27 20 -33 33 l-10 22 -427 0 c-352 0 -428 -2
-428 -13z m200 -341 l5 -98 21 24 c12 12 37 48 57 78 62 93 74 106 88 93 13
-13 -8 -54 -63 -125 -45 -57 -45 -85 -4 -147 20 -29 36 -54 36 -56 0 -2 18
-31 40 -64 45 -67 48 -81 22 -81 -12 0 -43 37 -91 110 -39 61 -75 110 -80 110
-18 0 -31 -50 -33 -130 -3 -72 -6 -85 -20 -88 -17 -3 -18 13 -18 231 0 128 3
237 7 241 19 19 28 -9 33 -98z m498 87 c-2 -14 -16 -19 -58 -23 l-55 -5 -3
-218 c-2 -201 -4 -218 -20 -215 -15 3 -17 24 -20 220 l-2 217 -53 3 c-40 2
-53 7 -55 21 -3 15 8 17 133 17 125 0 136 -2 133 -17z"/>
</g>
</svg>
